<svg width="378" height="391" viewBox="0 0 378 391" fill="none" xmlns="http://www.w3.org/2000/svg">
<path fill-rule="evenodd" clip-rule="evenodd" d="M-12.1659 195.51C-12.4326 195.244 -12.4326 194.811 -12.1659 194.544V194.544C-11.7356 194.114 -11 194.419 -11 195.027V195.027C-11 195.636 -11.7356 195.941 -12.1659 195.51V195.51ZM165 174C165 176.209 163.209 178 161 178H14.0354C10.4718 178 8.6871 173.691 11.207 171.172L158.172 24.207C160.691 21.6872 165 23.4718 165 27.0355V174ZM165 216C165 213.791 163.209 212 161 212H13.9807C10.417 212 8.63237 216.309 11.1522 218.828L158.172 365.848C160.691 368.368 165 366.583 165 363.019V216ZM182.384 390C182.362 390 182.351 390.027 182.366 390.043V390.043C182.376 390.053 182.392 390.053 182.402 390.043V390.043C182.418 390.027 182.407 390 182.384 390V390ZM205.828 366.616C203.309 369.136 199 367.351 199 363.788V216C199 213.791 200.791 212 203 212H350.788C354.351 212 356.136 216.309 353.616 218.828L205.828 366.616ZM203 178C200.791 178 199 176.209 199 174V26.2671C199 22.7034 203.309 20.9188 205.828 23.4386L353.561 171.172C356.081 173.692 354.297 178 350.733 178H203ZM182.384 9.43301e-06C182.386 9.43301e-06 182.387 -0.00249521 182.386 -0.0039589V-0.0039589C182.385 -0.00486526 182.383 -0.00486526 182.383 -0.0039589V-0.0039589C182.381 -0.00249521 182.382 9.43301e-06 182.384 9.43301e-06V9.43301e-06ZM377.295 194.905C377.363 194.973 377.363 195.082 377.295 195.15V195.15C377.186 195.259 377 195.181 377 195.027V195.027C377 194.873 377.186 194.796 377.295 194.905V194.905Z" fill="url(#paint0_radial_11_164)"/>
<defs>
<radialGradient id="paint0_radial_11_164" cx="0" cy="0" r="1" gradientUnits="userSpaceOnUse" gradientTransform="translate(193.703 195.027) rotate(90) scale(195.027 183.703)">
<stop stop-color="#A7FFD7"/>
<stop offset="1" stop-color="#5EF5F5"/>
</radialGradient>
</defs>
</svg>
